<mxfile host="app.diagrams.net" agent="Mozilla/5.0 (Windows NT 10.0; Win64; x64) AppleWebKit/537.36 (KHTML, like Gecko) Chrome/138.0.0.0 Safari/537.36" version="28.0.6">
  <diagram name="PÃ¡gina-1" id="5sDOOemOKCdKUuSut3xV">
    <mxGraphModel dx="1042" dy="608" grid="1" gridSize="10" guides="1" tooltips="1" connect="1" arrows="1" fold="1" page="1" pageScale="1" pageWidth="827" pageHeight="1169" math="0" shadow="0">
      <root>
        <mxCell id="0" />
        <mxCell id="1" parent="0" />
        <mxCell id="TT7tYjVrhlX-EZ1yUvir-26" style="edgeStyle=orthogonalEdgeStyle;rounded=0;orthogonalLoop=1;jettySize=auto;html=1;exitX=0.75;exitY=0;exitDx=0;exitDy=0;entryX=1;entryY=1;entryDx=0;entryDy=0;" edge="1" parent="1" source="TT7tYjVrhlX-EZ1yUvir-1" target="TT7tYjVrhlX-EZ1yUvir-10">
          <mxGeometry relative="1" as="geometry" />
        </mxCell>
        <mxCell id="TT7tYjVrhlX-EZ1yUvir-27" style="edgeStyle=orthogonalEdgeStyle;rounded=0;orthogonalLoop=1;jettySize=auto;html=1;exitX=1;exitY=0.25;exitDx=0;exitDy=0;entryX=0;entryY=0.5;entryDx=0;entryDy=0;" edge="1" parent="1" source="TT7tYjVrhlX-EZ1yUvir-1" target="TT7tYjVrhlX-EZ1yUvir-17">
          <mxGeometry relative="1" as="geometry" />
        </mxCell>
        <mxCell id="TT7tYjVrhlX-EZ1yUvir-31" style="edgeStyle=orthogonalEdgeStyle;rounded=0;orthogonalLoop=1;jettySize=auto;html=1;exitX=0.5;exitY=1;exitDx=0;exitDy=0;entryX=0.5;entryY=0;entryDx=0;entryDy=0;" edge="1" parent="1" source="TT7tYjVrhlX-EZ1yUvir-1" target="TT7tYjVrhlX-EZ1yUvir-8">
          <mxGeometry relative="1" as="geometry" />
        </mxCell>
        <mxCell id="TT7tYjVrhlX-EZ1yUvir-32" style="edgeStyle=orthogonalEdgeStyle;rounded=0;orthogonalLoop=1;jettySize=auto;html=1;exitX=0;exitY=0;exitDx=0;exitDy=0;entryX=1;entryY=0.75;entryDx=0;entryDy=0;" edge="1" parent="1" source="TT7tYjVrhlX-EZ1yUvir-33" target="TT7tYjVrhlX-EZ1yUvir-3">
          <mxGeometry relative="1" as="geometry" />
        </mxCell>
        <mxCell id="TT7tYjVrhlX-EZ1yUvir-1" value="Venta" style="rounded=0;whiteSpace=wrap;html=1;fillColor=#ffcd28;strokeColor=#d79b00;gradientColor=#ffa500;" vertex="1" parent="1">
          <mxGeometry x="370" y="440" width="120" height="60" as="geometry" />
        </mxCell>
        <mxCell id="TT7tYjVrhlX-EZ1yUvir-22" style="edgeStyle=orthogonalEdgeStyle;rounded=0;orthogonalLoop=1;jettySize=auto;html=1;exitX=0;exitY=0.75;exitDx=0;exitDy=0;entryX=0.5;entryY=0;entryDx=0;entryDy=0;" edge="1" parent="1" source="TT7tYjVrhlX-EZ1yUvir-2" target="TT7tYjVrhlX-EZ1yUvir-12">
          <mxGeometry relative="1" as="geometry" />
        </mxCell>
        <mxCell id="TT7tYjVrhlX-EZ1yUvir-24" style="edgeStyle=orthogonalEdgeStyle;rounded=0;orthogonalLoop=1;jettySize=auto;html=1;exitX=1;exitY=0;exitDx=0;exitDy=0;entryX=0;entryY=0.5;entryDx=0;entryDy=0;" edge="1" parent="1" source="TT7tYjVrhlX-EZ1yUvir-2" target="TT7tYjVrhlX-EZ1yUvir-13">
          <mxGeometry relative="1" as="geometry" />
        </mxCell>
        <mxCell id="TT7tYjVrhlX-EZ1yUvir-25" style="edgeStyle=orthogonalEdgeStyle;rounded=0;orthogonalLoop=1;jettySize=auto;html=1;exitX=0.75;exitY=1;exitDx=0;exitDy=0;entryX=0.5;entryY=0;entryDx=0;entryDy=0;" edge="1" parent="1" source="TT7tYjVrhlX-EZ1yUvir-2" target="TT7tYjVrhlX-EZ1yUvir-15">
          <mxGeometry relative="1" as="geometry" />
        </mxCell>
        <mxCell id="TT7tYjVrhlX-EZ1yUvir-36" style="edgeStyle=orthogonalEdgeStyle;rounded=0;orthogonalLoop=1;jettySize=auto;html=1;exitX=0.5;exitY=1;exitDx=0;exitDy=0;entryX=1;entryY=0;entryDx=0;entryDy=0;" edge="1" parent="1" source="TT7tYjVrhlX-EZ1yUvir-37" target="TT7tYjVrhlX-EZ1yUvir-1">
          <mxGeometry relative="1" as="geometry">
            <Array as="points">
              <mxPoint x="540" y="300" />
              <mxPoint x="540" y="440" />
            </Array>
          </mxGeometry>
        </mxCell>
        <mxCell id="TT7tYjVrhlX-EZ1yUvir-2" value="Cliente" style="rounded=0;whiteSpace=wrap;html=1;fillColor=#ffcd28;strokeColor=#d79b00;gradientColor=#ffa500;" vertex="1" parent="1">
          <mxGeometry x="707" y="100" width="120" height="60" as="geometry" />
        </mxCell>
        <mxCell id="TT7tYjVrhlX-EZ1yUvir-19" style="edgeStyle=orthogonalEdgeStyle;rounded=0;orthogonalLoop=1;jettySize=auto;html=1;exitX=0;exitY=0.5;exitDx=0;exitDy=0;entryX=1;entryY=1;entryDx=0;entryDy=0;" edge="1" parent="1" source="TT7tYjVrhlX-EZ1yUvir-3" target="TT7tYjVrhlX-EZ1yUvir-5">
          <mxGeometry relative="1" as="geometry" />
        </mxCell>
        <mxCell id="TT7tYjVrhlX-EZ1yUvir-21" style="edgeStyle=orthogonalEdgeStyle;rounded=0;orthogonalLoop=1;jettySize=auto;html=1;exitX=0.5;exitY=1;exitDx=0;exitDy=0;entryX=0.5;entryY=0;entryDx=0;entryDy=0;" edge="1" parent="1" source="TT7tYjVrhlX-EZ1yUvir-3" target="TT7tYjVrhlX-EZ1yUvir-7">
          <mxGeometry relative="1" as="geometry" />
        </mxCell>
        <mxCell id="TT7tYjVrhlX-EZ1yUvir-3" value="Videojuego" style="rounded=0;whiteSpace=wrap;html=1;fillColor=#ffcd28;strokeColor=#d79b00;gradientColor=#ffa500;" vertex="1" parent="1">
          <mxGeometry x="130" y="80" width="120" height="60" as="geometry" />
        </mxCell>
        <mxCell id="TT7tYjVrhlX-EZ1yUvir-4" value="Id&amp;nbsp; Videojuego" style="ellipse;whiteSpace=wrap;html=1;fillColor=#f5f5f5;gradientColor=#b3b3b3;strokeColor=#666666;" vertex="1" parent="1">
          <mxGeometry x="270" y="20" width="120" height="80" as="geometry" />
        </mxCell>
        <mxCell id="TT7tYjVrhlX-EZ1yUvir-5" value="Titulo" style="ellipse;whiteSpace=wrap;html=1;" vertex="1" parent="1">
          <mxGeometry y="20" width="120" height="80" as="geometry" />
        </mxCell>
        <mxCell id="TT7tYjVrhlX-EZ1yUvir-6" value="Genero" style="ellipse;whiteSpace=wrap;html=1;" vertex="1" parent="1">
          <mxGeometry x="10" y="170" width="120" height="80" as="geometry" />
        </mxCell>
        <mxCell id="TT7tYjVrhlX-EZ1yUvir-7" value="Precio" style="ellipse;whiteSpace=wrap;html=1;" vertex="1" parent="1">
          <mxGeometry x="170" y="210" width="120" height="80" as="geometry" />
        </mxCell>
        <mxCell id="TT7tYjVrhlX-EZ1yUvir-8" value="Fecha de venta" style="ellipse;whiteSpace=wrap;html=1;" vertex="1" parent="1">
          <mxGeometry x="380" y="550" width="120" height="80" as="geometry" />
        </mxCell>
        <mxCell id="TT7tYjVrhlX-EZ1yUvir-10" value="Id Venta" style="ellipse;whiteSpace=wrap;html=1;" vertex="1" parent="1">
          <mxGeometry x="370" y="320" width="120" height="80" as="geometry" />
        </mxCell>
        <mxCell id="TT7tYjVrhlX-EZ1yUvir-12" value="Nombre del cliente" style="ellipse;whiteSpace=wrap;html=1;" vertex="1" parent="1">
          <mxGeometry x="570" y="180" width="120" height="80" as="geometry" />
        </mxCell>
        <mxCell id="TT7tYjVrhlX-EZ1yUvir-13" value="Correo" style="ellipse;whiteSpace=wrap;html=1;" vertex="1" parent="1">
          <mxGeometry x="860" y="70" width="120" height="80" as="geometry" />
        </mxCell>
        <mxCell id="TT7tYjVrhlX-EZ1yUvir-14" value="Id Cliente" style="ellipse;whiteSpace=wrap;html=1;fillColor=#f5f5f5;gradientColor=#b3b3b3;strokeColor=#666666;" vertex="1" parent="1">
          <mxGeometry x="620" width="120" height="80" as="geometry" />
        </mxCell>
        <mxCell id="TT7tYjVrhlX-EZ1yUvir-15" value="Telefono" style="ellipse;whiteSpace=wrap;html=1;" vertex="1" parent="1">
          <mxGeometry x="790" y="220" width="120" height="90" as="geometry" />
        </mxCell>
        <mxCell id="TT7tYjVrhlX-EZ1yUvir-16" value="Id&amp;nbsp; Videojuego" style="ellipse;whiteSpace=wrap;html=1;fillColor=#f5f5f5;gradientColor=#b3b3b3;strokeColor=#666666;" vertex="1" parent="1">
          <mxGeometry x="190" y="410" width="120" height="80" as="geometry" />
        </mxCell>
        <mxCell id="TT7tYjVrhlX-EZ1yUvir-17" value="Id Cliente" style="ellipse;whiteSpace=wrap;html=1;fillColor=#f5f5f5;gradientColor=#b3b3b3;strokeColor=#666666;" vertex="1" parent="1">
          <mxGeometry x="560" y="420" width="120" height="80" as="geometry" />
        </mxCell>
        <mxCell id="TT7tYjVrhlX-EZ1yUvir-18" style="edgeStyle=orthogonalEdgeStyle;rounded=0;orthogonalLoop=1;jettySize=auto;html=1;exitX=1;exitY=0.5;exitDx=0;exitDy=0;entryX=0.207;entryY=0.938;entryDx=0;entryDy=0;entryPerimeter=0;" edge="1" parent="1" source="TT7tYjVrhlX-EZ1yUvir-3" target="TT7tYjVrhlX-EZ1yUvir-4">
          <mxGeometry relative="1" as="geometry" />
        </mxCell>
        <mxCell id="TT7tYjVrhlX-EZ1yUvir-20" style="edgeStyle=orthogonalEdgeStyle;rounded=0;orthogonalLoop=1;jettySize=auto;html=1;exitX=0;exitY=1;exitDx=0;exitDy=0;entryX=0.82;entryY=0.063;entryDx=0;entryDy=0;entryPerimeter=0;" edge="1" parent="1" source="TT7tYjVrhlX-EZ1yUvir-3" target="TT7tYjVrhlX-EZ1yUvir-6">
          <mxGeometry relative="1" as="geometry" />
        </mxCell>
        <mxCell id="TT7tYjVrhlX-EZ1yUvir-23" style="edgeStyle=orthogonalEdgeStyle;rounded=0;orthogonalLoop=1;jettySize=auto;html=1;exitX=0.25;exitY=0;exitDx=0;exitDy=0;entryX=1.03;entryY=0.627;entryDx=0;entryDy=0;entryPerimeter=0;" edge="1" parent="1" source="TT7tYjVrhlX-EZ1yUvir-2" target="TT7tYjVrhlX-EZ1yUvir-14">
          <mxGeometry relative="1" as="geometry" />
        </mxCell>
        <mxCell id="TT7tYjVrhlX-EZ1yUvir-30" style="edgeStyle=orthogonalEdgeStyle;rounded=0;orthogonalLoop=1;jettySize=auto;html=1;exitX=0;exitY=0.5;exitDx=0;exitDy=0;entryX=1.02;entryY=0.613;entryDx=0;entryDy=0;entryPerimeter=0;" edge="1" parent="1" source="TT7tYjVrhlX-EZ1yUvir-1" target="TT7tYjVrhlX-EZ1yUvir-16">
          <mxGeometry relative="1" as="geometry" />
        </mxCell>
        <mxCell id="TT7tYjVrhlX-EZ1yUvir-34" value="" style="edgeStyle=orthogonalEdgeStyle;rounded=0;orthogonalLoop=1;jettySize=auto;html=1;exitX=0;exitY=0;exitDx=0;exitDy=0;entryX=0;entryY=1;entryDx=0;entryDy=0;" edge="1" parent="1" source="TT7tYjVrhlX-EZ1yUvir-1" target="TT7tYjVrhlX-EZ1yUvir-33">
          <mxGeometry relative="1" as="geometry">
            <mxPoint x="370" y="440" as="sourcePoint" />
            <mxPoint x="250" y="125" as="targetPoint" />
            <Array as="points">
              <mxPoint x="330" y="440" />
              <mxPoint x="330" y="360" />
              <mxPoint x="340" y="360" />
              <mxPoint x="340" y="243" />
              <mxPoint x="350" y="243" />
            </Array>
          </mxGeometry>
        </mxCell>
        <mxCell id="TT7tYjVrhlX-EZ1yUvir-33" value="Incluye" style="rhombus;whiteSpace=wrap;html=1;fillColor=#d5e8d4;gradientColor=#97d077;strokeColor=#82b366;" vertex="1" parent="1">
          <mxGeometry x="330" y="190" width="80" height="80" as="geometry" />
        </mxCell>
        <mxCell id="TT7tYjVrhlX-EZ1yUvir-38" value="" style="edgeStyle=orthogonalEdgeStyle;rounded=0;orthogonalLoop=1;jettySize=auto;html=1;exitX=0.5;exitY=1;exitDx=0;exitDy=0;entryX=1;entryY=0;entryDx=0;entryDy=0;" edge="1" parent="1" source="TT7tYjVrhlX-EZ1yUvir-2" target="TT7tYjVrhlX-EZ1yUvir-37">
          <mxGeometry relative="1" as="geometry">
            <mxPoint x="767" y="160" as="sourcePoint" />
            <mxPoint x="490" y="440" as="targetPoint" />
            <Array as="points">
              <mxPoint x="767" y="300" />
            </Array>
          </mxGeometry>
        </mxCell>
        <mxCell id="TT7tYjVrhlX-EZ1yUvir-37" value="Genera una" style="rhombus;whiteSpace=wrap;html=1;fillColor=#d5e8d4;gradientColor=#97d077;strokeColor=#82b366;" vertex="1" parent="1">
          <mxGeometry x="510" y="280" width="80" height="80" as="geometry" />
        </mxCell>
      </root>
    </mxGraphModel>
  </diagram>
</mxfile>
